<svg width="34" height="45" viewBox="0 0 34 45" fill="none" xmlns="http://www.w3.org/2000/svg">
<path d="M19.8333 11.9531V0H2.125C0.947396 0 0 0.94043 0 2.10938V42.8906C0 44.0596 0.947396 45 2.125 45H31.875C33.0526 45 34 44.0596 34 42.8906V14.0625H21.9583C20.7896 14.0625 19.8333 13.1133 19.8333 11.9531ZM25.6045 30.9384H19.8333V37.9696C19.8333 38.7466 19.1994 39.3759 18.4167 39.3759H15.5833C14.8006 39.3759 14.1667 38.7466 14.1667 37.9696V30.9384H8.39552C7.13115 30.9384 6.49984 29.4187 7.39766 28.5337L15.9348 20.1226C16.5236 19.5416 17.4746 19.5416 18.0634 20.1226L26.6006 28.5337C27.4993 29.4187 26.8689 30.9384 25.6045 30.9384ZM33.3802 9.22852L24.712 0.615234C24.3135 0.219727 23.7734 0 23.2068 0H22.6667V11.25H34V10.7139C34 10.1602 33.7786 9.62402 33.3802 9.22852Z" fill="#B2B0B0"/>
</svg>
