<svg width="53" height="53" viewBox="0 0 53 53" fill="none" xmlns="http://www.w3.org/2000/svg">
<path d="M26.5 53C41.1355 53 53 41.1355 53 26.5C53 11.8645 41.1355 0 26.5 0C11.8645 0 0 11.8645 0 26.5C0 41.1355 11.8645 53 26.5 53Z" fill="#1D2155"/>
<path d="M14.5542 29.0051V40.928H10.3267V26.2764C10.3267 25.8313 10.8484 25.5911 11.1879 25.881L14.372 28.6076C14.4859 28.7069 14.5542 28.8519 14.5542 29.0051Z" fill="white"/>
<path d="M44.3895 24.7837C43.7022 23.7237 42.7312 22.9101 41.4621 22.3345C40.193 21.759 38.692 21.4753 36.9757 21.4753H36.071C35.9426 21.4753 35.8184 21.523 35.7232 21.6078L32.2057 24.7526L28.6758 27.9202C28.5661 28.0196 28.5019 28.1604 28.5019 28.3094L28.4916 40.9756H33.0463L33.0566 35.5638H36.9757C38.692 35.5638 40.193 35.2802 41.4621 34.7129C42.7312 34.1457 43.7022 33.332 44.3895 32.272C45.0769 31.2037 45.4205 29.9574 45.4205 28.531C45.4205 27.0838 45.0769 25.8375 44.3895 24.7837ZM39.8058 31.0195C39.104 31.6012 38.073 31.8932 36.7231 31.8932H33.5804C33.2926 31.8932 33.0587 31.6592 33.0587 31.3714V25.6677C33.0587 25.38 33.2926 25.146 33.5804 25.146H36.7231C38.0751 25.146 39.104 25.4379 39.8058 26.0197C40.5077 26.6014 40.8658 27.4461 40.8658 28.5351C40.8658 29.6075 40.5077 30.4357 39.8058 31.0195Z" fill="white"/>
<path d="M42.6732 6.37244L42.342 11.6973C42.2302 12.9664 41.6401 14.1382 40.7002 14.9829L36.0793 19.1194L32.4128 22.3967L28.9926 25.7526L28.4916 26.1998L23.0425 31.4646C22.5498 31.9056 21.908 32.152 21.2434 32.152C20.6016 32.152 19.9826 31.9201 19.4961 31.5019L14.5542 27.2702L11.1713 24.3655C10.6331 23.9101 10.3267 23.2455 10.3267 22.5437V21.67C10.3267 20.7363 11.0803 19.9827 12.014 19.9827H12.9249C13.6495 19.9827 14.3431 20.258 14.8731 20.759L21.3324 26.8437L42.6732 6.37244Z" fill="#FBAD18"/>
</svg>
